<?xml version="1.0"?>
<svg width="22" height="19" xmlns="http://www.w3.org/2000/svg" xmlns:svg="http://www.w3.org/2000/svg">
 <g class="layer">
  <title>Layer 1</title>
  <path d="m20.3,9.79c2.27,-2.25 2.27,-5.89 0,-8.11c-2.27,-2.24 -5.95,-2.24 -8.22,0l-1.1,1.11l-1.1,-1.09c-2.27,-2.26 -5.95,-2.26 -8.2,-0.02c-1.1,1.09 -1.68,2.53 -1.68,4.06c0,1.54 0.61,2.98 1.68,4.07l9.3,9.19l9.32,-9.21zm-18.86,-4.05c0,-1.15 0.45,-2.22 1.28,-3.01c0.85,-0.85 1.95,-1.27 3.05,-1.27c1.1,0 2.2,0.42 3.05,1.27l2.16,2.1l2.16,-2.13c1.68,-1.66 4.44,-1.66 6.1,0c0.81,0.8 1.28,1.87 1.28,3.02c0,1.16 -0.45,2.22 -1.28,3.02l-8.26,8.2l-8.26,-8.18c-0.81,-0.82 -1.28,-1.88 -1.28,-3.02z" fill="red" id="svg_1"/>
 </g>
</svg>